<svg xmlns="http://www.w3.org/2000/svg" id="Background" width="1900" height="768.5" viewBox="0 0 1900 768.5"><line id="Line_5" x1="200" fill="none" stroke="#bfc0c1" stroke-miterlimit="10" stroke-width="1" data-name="Line 5" transform="translate(200 182)"/><circle id="Ellipse_5197" cx="25" cy="25" r="25" fill="#eeeff1" data-name="Ellipse 5197" transform="translate(150 157)"/><line id="Line_6" x2="150" fill="none" stroke="#bfc0c1" stroke-miterlimit="10" stroke-width="1" data-name="Line 6" transform="translate(250 307)"/><line id="Line_7" y2="275" fill="none" stroke="#bfc0c1" stroke-miterlimit="10" stroke-width="1" data-name="Line 7" transform="translate(300 150)"/><line id="Line_8" x2="150" fill="none" stroke="#bfc0c1" stroke-miterlimit="10" stroke-width="1" data-name="Line 8" transform="translate(250 557)"/><line id="Line_9" y1="293.5" fill="none" stroke="#bfc0c1" stroke-miterlimit="10" stroke-width="1" data-name="Line 9" transform="translate(125 475)"/><line id="Line_10" x2="275" fill="none" stroke="#bfc0c1" stroke-miterlimit="10" stroke-width="1" data-name="Line 10" transform="translate(0 369)"/><line id="Line_11" x2="275" fill="none" stroke="#bfc0c1" stroke-miterlimit="10" stroke-width="1" data-name="Line 11" transform="translate(1500 400)"/><line id="Line_12" y2="200" fill="none" stroke="#f2ecf3" stroke-miterlimit="10" stroke-width="1" data-name="Line 12" transform="translate(1625)"/><line id="Line_14" x1="225" fill="none" stroke="#bfc0c1" stroke-miterlimit="10" stroke-width="1" data-name="Line 14" transform="translate(1675 275)"/><line id="Line_15" y2="525" fill="none" stroke="#c2bec0" stroke-miterlimit="10" stroke-width="1" data-name="Line 15" transform="translate(1750 200)"/><line id="Line_16" x2="325" fill="none" stroke="#bfc0c1" stroke-miterlimit="10" stroke-width="1" data-name="Line 16" transform="translate(1500 575)"/><rect id="Rectangle_2292" width="50" height="50" fill="#bfc0c1" data-name="Rectangle 2292" transform="translate(1775 375)"/><path id="Rectangle_2293" fill="#bfc0c1" d="M0,0H0A50,50,0,0,1,50,50v0a0,0,0,0,1,0,0H0a0,0,0,0,1,0,0V0A0,0,0,0,1,0,0Z" data-name="Rectangle 2293" transform="translate(100 425)"/><rect id="Rectangle_2294" width="25" height="25" fill="#bfc0c1" data-name="Rectangle 2294" rx="12.5" transform="translate(1662.5 262.5)"/><rect id="Rectangle_2129" width="25" height="50" fill="#eeeff1" data-name="Rectangle 2129" transform="translate(175 275)"/><path id="Path_673" fill="#eeeff1" d="M1425.053,1525.122h-25a12.5,12.5,0,0,0,25,0Z" data-name="Path 673" transform="translate(-1225.053 -1200.122)"/><path id="Path_673-2" fill="#eeeff1" d="M1425.053,1525.122h-25a12.5,12.5,0,0,0,25,0Z" data-name="Path 673" transform="translate(1600.053 1800.622) rotate(180)"/></svg>