<svg xmlns="http://www.w3.org/2000/svg" width="155" height="252" fill="none" viewBox="0 0 300 500"><g id="Desktop - 1"><rect width="1024" height="1440" fill="#F5F9FA" transform="translate(-250 -450)"/><g id="Group 1"><path id="Rectangle 6" fill="#42779B" d="M50 325C50 311.193 61.1929 300 75 300V300C88.8071 300 100 311.193 100 325V475C100 488.807 88.8071 500 75 500V500C61.1929 500 50 488.807 50 475V325Z"/><rect id="lightBlueRectangle" width="150" height="50" fill="#42779B"/><rect id="blueRectangle" width="150" height="100" x="150" fill="#1A2A3A"/><rect id="blueSquare" width="150" height="150" y="50" fill="#1A2A3A"/><circle id="whiteCircle" cx="75.5" cy="125.5" r="37.5" fill="#F5F9FA"/><rect id="Rectangle 5" width="150" height="400" x="150" y="100" fill="#1A2A3A"/><path id="whiteQuater" fill="#fff" d="M150 100H300V150C300 205.228 255.228 250 200 250H150V100Z"/><circle id="blueCircle" cx="75" cy="245" r="25" fill="#42779B"/><path id="blueQuater" fill="#42779B" d="M150 450C150 394.772 194.772 350 250 350H300V500H150V450Z"/></g></g></svg>