<svg xmlns="http://www.w3.org/2000/svg" xmlns:xlink="http://www.w3.org/1999/xlink" id="Illustration" width="177.023" height="131" viewBox="0 0 177.023 131"><defs><clipPath id="clip-path"><rect id="Rectangle_175" width="177.023" height="131" fill="none" data-name="Rectangle 175"/></clipPath></defs><line id="Line_21" x2="90.381" fill="none" stroke="#000" stroke-miterlimit="10" stroke-width="2" data-name="Line 21" transform="translate(16.367 119.605)"/><line id="Line_22" x2="35.178" fill="none" stroke="#000" stroke-miterlimit="10" stroke-width="2" data-name="Line 22" transform="translate(93.917 125.262)"/><line id="Line_23" x2="85.737" fill="none" stroke="#000" stroke-miterlimit="10" stroke-width="1.49" data-name="Line 23" transform="translate(27.431 25.896)"/><line id="Line_24" y2="85.737" fill="none" stroke="#000" stroke-miterlimit="10" stroke-width="1.49" data-name="Line 24" transform="translate(99.507 9.359)"/><line id="Line_25" y2="85.737" fill="none" stroke="#000" stroke-miterlimit="10" stroke-width="1.49" data-name="Line 25" transform="translate(105.039 9.359)"/><g id="Group_12" data-name="Group 12"><g id="Group_11" clip-path="url(#clip-path)" data-name="Group 11"><line id="Line_26" y1="127.231" fill="none" stroke="#000" stroke-miterlimit="10" stroke-width="2.29" data-name="Line 26" transform="translate(154.934 3.769)"/></g></g><line id="Line_27" x2="90.381" fill="none" stroke="#000" stroke-miterlimit="10" stroke-width="2" data-name="Line 27" transform="translate(81.199 108.666)"/><rect id="Rectangle_176" width="44.254" height="82.977" fill="#fff" data-name="Rectangle 176" transform="translate(55.195 25.896)"/><rect id="Rectangle_177" width="44.254" height="82.977" fill="#fff" data-name="Rectangle 177" transform="translate(104.981 25.896)"/><g id="Group_14" data-name="Group 14"><g id="Group_13" clip-path="url(#clip-path)" data-name="Group 13"><path id="Path_40" fill="#091d2d" d="M299.339,172.567H277.212a2.766,2.766,0,1,1,0-5.532h22.127a2.766,2.766,0,1,1,0,5.532" data-name="Path 40" transform="translate(-213.719 -130.075)"/><path id="Path_41" fill="#091d2d" d="M549.339,422.567H527.212a2.766,2.766,0,1,1,0-5.532h22.127a2.766,2.766,0,0,1,0,5.532" data-name="Path 41" transform="translate(-408.401 -324.757)"/><path id="Path_42" fill="#091d2d" d="M568.807,172.567h-16.6a2.766,2.766,0,0,1,0-5.532h16.6a2.766,2.766,0,0,1,0,5.532" data-name="Path 42" transform="translate(-427.87 -130.075)"/><path id="Path_43" fill="#091d2d" d="M299.339,322.567H277.212a2.766,2.766,0,1,1,0-5.532h22.127a2.766,2.766,0,1,1,0,5.532" data-name="Path 43" transform="translate(-213.719 -246.884)"/><path id="Path_44" fill="#091d2d" d="M282.744,222.567h-5.532a2.766,2.766,0,1,1,0-5.532h5.532a2.766,2.766,0,0,1,0,5.532" data-name="Path 44" transform="translate(-213.719 -169.012)"/><path id="Path_45" fill="#091d2d" d="M363.275,222.567H352.212a2.766,2.766,0,1,1,0-5.532h11.064a2.766,2.766,0,0,1,0,5.532" data-name="Path 45" transform="translate(-272.124 -169.012)"/><path id="Path_46" fill="#091d2d" d="M507.744,322.567h-5.532a2.766,2.766,0,1,1,0-5.532h5.532a2.766,2.766,0,1,1,0,5.532" data-name="Path 46" transform="translate(-388.933 -246.884)"/><path id="Path_47" fill="#091d2d" d="M588.275,322.567H577.212a2.766,2.766,0,1,1,0-5.532h11.064a2.766,2.766,0,0,1,0,5.532" data-name="Path 47" transform="translate(-447.338 -246.884)"/><path id="Path_48" fill="#091d2d" d="M377.212,367.035h5.532a2.766,2.766,0,1,1,0,5.532h-5.532a2.766,2.766,0,1,1,0-5.532" data-name="Path 48" transform="translate(-291.592 -285.821)"/><path id="Path_49" fill="#091d2d" d="M277.212,367.035h11.064a2.766,2.766,0,1,1,0,5.532H277.212a2.766,2.766,0,1,1,0-5.532" data-name="Path 49" transform="translate(-213.719 -285.821)"/><path id="Path_50" fill="#42779b" d="M667.478,519.8a2.766,2.766,0,1,1-2.766-2.766,2.766,2.766,0,0,1,2.766,2.766" data-name="Path 50" transform="translate(-515.477 -402.63)"/><path id="Path_51" fill="#091d2d" d="M304.871,272.567H277.212a2.766,2.766,0,1,1,0-5.532h27.659a2.766,2.766,0,1,1,0,5.532" data-name="Path 51" transform="translate(-213.719 -207.948)"/><path id="Path_52" fill="#091d2d" d="M529.871,222.567H502.212a2.766,2.766,0,1,1,0-5.532h27.659a2.766,2.766,0,1,1,0,5.532" data-name="Path 52" transform="translate(-388.933 -169.012)"/><path id="Path_53" fill="#091d2d" d="M529.871,272.567H502.212a2.766,2.766,0,1,1,0-5.532h27.659a2.766,2.766,0,1,1,0,5.532" data-name="Path 53" transform="translate(-388.933 -207.948)"/><path id="Path_54" fill="#091d2d" d="M304.871,423.567H277.212a2.766,2.766,0,1,1,0-5.532h27.659a2.766,2.766,0,1,1,0,5.532" data-name="Path 54" transform="translate(-213.719 -325.536)"/><path id="Path_55" fill="#091d2d" d="M529.871,372.567H502.212a2.766,2.766,0,1,1,0-5.532h27.659a2.766,2.766,0,1,1,0,5.532" data-name="Path 55" transform="translate(-388.933 -285.821)"/><path id="Path_56" d="M541.041,158.553V92.035h-16.6v88.508h5.633v-10.9a11.089,11.089,0,0,1,10.962-11.088" data-name="Path 56" transform="translate(-408.401 -71.67)"/><rect id="Rectangle_178" width="102.448" height="5.642" fill="#091d2d" data-name="Rectangle 178" transform="translate(46.676 114.294)"/><rect id="Rectangle_179" width="5.532" height="88.508" fill="#091d2d" data-name="Rectangle 179" transform="translate(44.132 28.773)"/><path id="Path_57" d="M310.081,97.567H199.446a5.532,5.532,0,0,1,5.532-5.532H304.55a5.532,5.532,0,0,1,5.532,5.532" data-name="Path 57" transform="translate(-155.314 -71.67)"/><rect id="Rectangle_180" width="99.572" height="5.532" data-name="Rectangle 180" transform="translate(49.663 108.873)"/><rect id="Rectangle_181" width="5.532" height="82.977" fill="#1e3b51" data-name="Rectangle 181" transform="translate(99.671 25.896)"/><rect id="Rectangle_182" width="5.532" height="88.508" data-name="Rectangle 182" transform="translate(49.553 25.896)"/><path id="Path_58" d="M674.946,211.075v-94.04h5.532v88.508a5.532,5.532,0,0,1-5.532,5.532" data-name="Path 58" transform="translate(-525.6 -91.139)"/><path id="Path_59" fill="#42779b" d="M623.094,590.682v-.3c-.129-.025-.257-.051-.384-.08Z" data-name="Path 59" transform="translate(-484.922 -459.682)"/><path id="Path_60" fill="#42779b" d="M524.446,590.456l.449-.448c-.149.037-.3.074-.449.106Z" data-name="Path 60" transform="translate(-408.401 -459.457)"/><path id="Path_61" d="M548.988,481.747a13.824,13.824,0,0,0,10.78,13.367c.127.029.255.055.384.08V468.068a13.824,13.824,0,0,0-11.164,13.679" data-name="Path 61" transform="translate(-427.513 -364.498)"/><path id="Path_62" d="M524.446,468.241V495.29c.151-.032.3-.069.449-.106a13.823,13.823,0,0,0-.449-26.944" data-name="Path 62" transform="translate(-408.401 -364.633)"/><path id="Path_63" fill="#42779b" d="M341.978,519.8a2.766,2.766,0,1,1-2.766-2.766,2.766,2.766,0,0,1,2.766,2.766" data-name="Path 63" transform="translate(-262 -402.63)"/><path id="Path_64" fill="#42779b" d="M204.478,519.8a2.766,2.766,0,1,1-2.766-2.766,2.766,2.766,0,0,1,2.766,2.766" data-name="Path 64" transform="translate(-154.925 -402.63)"/><path id="Path_65" fill="#42779b" d="M204.478,108.3a2.766,2.766,0,1,1-2.766-2.766,2.766,2.766,0,0,1,2.766,2.766" data-name="Path 65" transform="translate(-154.925 -82.183)"/><path id="Path_66" d="M535.51,78.1h-5.532a5.532,5.532,0,1,1,0-11.064h5.532a5.532,5.532,0,1,1,0,11.064" data-name="Path 66" transform="translate(-408.401 -52.202)"/><path id="Path_67" fill="#fff" d="M464.212,522.567h0a2.766,2.766,0,1,1,2.766-2.766,2.766,2.766,0,0,1-2.766,2.766" data-name="Path 67" transform="translate(-359.342 -402.63)"/><rect id="Rectangle_183" width="11.064" height="5.532" fill="#1e3b51" data-name="Rectangle 183" transform="translate(77.322 114.405)"/><rect id="Rectangle_184" width="5.532" height="5.532" fill="#1e3b51" data-name="Rectangle 184" transform="translate(44.132 86.746)"/><rect id="Rectangle_185" width="5.532" height="11.064" fill="#1e3b51" data-name="Rectangle 185" transform="translate(44.132 64.619)"/><rect id="Rectangle_186" width="5.532" height="11.064" fill="#1e3b51" data-name="Rectangle 186" transform="translate(44.132 25.896)"/><path id="Path_68" fill="#42779b" d="M389.3,516.261h2.852v2.852a2.851,2.851,0,0,1-2.852,2.852h-2.852v-2.852a2.852,2.852,0,0,1,2.852-2.852" data-name="Path 68" transform="translate(-300.937 -402.028)"/><path id="Path_69" d="M605.478,94.8a2.766,2.766,0,1,1-2.766-2.766,2.766,2.766,0,0,1,2.766,2.766" data-name="Path 69" transform="translate(-467.196 -71.67)"/><path id="Path_70" fill="#42779b" d="M567.978,107.3a2.766,2.766,0,1,1-2.766-2.766,2.766,2.766,0,0,1,2.766,2.766" data-name="Path 70" transform="translate(-437.993 -81.404)"/><path id="Path_71" fill="#fff" d="M202.3,267.261h2.852v2.852a2.852,2.852,0,0,1-2.852,2.852h-2.852v-2.852a2.852,2.852,0,0,1,2.852-2.852" data-name="Path 71" transform="translate(-155.314 -208.124)"/><path id="Path_72" d="M560.866,392.655A11.089,11.089,0,0,0,549.9,403.743v10.9h10.962Z" data-name="Path 72" transform="translate(-428.226 -305.772)"/><path id="Path_73" fill="#fff" d="M579.978,394.3a2.766,2.766,0,1,1-2.766-2.766,2.766,2.766,0,0,1,2.766,2.766" data-name="Path 73" transform="translate(-447.338 -304.9)"/><rect id="Rectangle_187" width="5.532" height="5.532" fill="#1e3b51" data-name="Rectangle 187" transform="translate(104.981 114.405)"/><path id="Path_74" fill="#1e3b51" d="M530.36,433.3a2.766,2.766,0,1,1-2.766-2.766,2.766,2.766,0,0,1,2.766,2.766" data-name="Path 74" transform="translate(-408.699 -335.27)"/><rect id="Rectangle_188" width="10.962" height="22.127" fill="#091d2d" data-name="Rectangle 188" transform="translate(121.678 103.425)"/><path id="Path_75" fill="#fff" d="M538.231,297.912h0a2.766,2.766,0,0,1-2.766-2.766h0a2.766,2.766,0,0,1,5.532,0h0a2.766,2.766,0,0,1-2.766,2.766" data-name="Path 75" transform="translate(-416.982 -227.685)"/><path id="Path_76" fill="#1e3b51" d="M554.978,195.3a2.766,2.766,0,1,1-2.766-2.766,2.766,2.766,0,0,1,2.766,2.766" data-name="Path 76" transform="translate(-427.87 -149.933)"/><path id="Path_77" fill="#42779b" d="M541.212,308.5a16.547,16.547,0,0,0-16.547-16.547v33.094A16.547,16.547,0,0,0,541.212,308.5" data-name="Path 77" transform="translate(-408.572 -227.355)"/><path id="Path_78" fill="#091d2d" d="M524.863,346.285a8.273,8.273,0,0,0,0-16.545h-.005l0,16.545Z" data-name="Path 78" transform="translate(-408.722 -256.778)"/><path id="Path_79" fill="#fff" d="M589.343,202.835a2.921,2.921,0,0,0,0,5.841h0v-5.841Z" data-name="Path 79" transform="translate(-456.683 -157.954)"/><path id="Path_80" fill="#091d2d" d="M535.968,447.948a5.532,5.532,0,1,1-5.532-5.532,5.532,5.532,0,0,1,5.532,5.532" data-name="Path 80" transform="translate(-408.758 -344.522)"/><path id="Path_81" fill="#fff" d="M554.978,518.3a2.766,2.766,0,1,1-2.766-2.766,2.766,2.766,0,0,1,2.766,2.766" data-name="Path 81" transform="translate(-427.87 -401.462)"/><path id="Path_82" fill="#1e3b51" d="M540.286,250.334v8.3h-8.3a8.3,8.3,0,0,1-8.3-8.3v-8.3h8.3a8.3,8.3,0,0,1,8.3,8.3" data-name="Path 82" transform="translate(-407.81 -188.48)"/><rect id="Rectangle_189" width="16.595" height="16.595" fill="#1e3b51" data-name="Rectangle 189" transform="translate(116.045 25.896)"/><path id="Path_83" fill="#091d2d" d="M540.97,164.059a8.273,8.273,0,0,0-16.545,0v.005l16.545,0Z" data-name="Path 83" transform="translate(-408.385 -121.369)"/><path id="Path_84" fill="#091d2d" d="M533.519,392.035h8.3v8.3a8.3,8.3,0,0,1-8.3,8.3h-8.3v-8.3a8.3,8.3,0,0,1,8.3-8.3" data-name="Path 84" transform="translate(-409.005 -305.289)"/><path id="Path_85" fill="#42779b" d="M557.744,466.535a8.3,8.3,0,1,0,2.766,16.121V467.009a8.277,8.277,0,0,0-2.766-.474" data-name="Path 85" transform="translate(-427.87 -363.305)"/><text id="Ab" font-family="Lato-Black, Lato" font-size="1" font-weight="800" transform="translate(173.61 107.218)"><tspan x="0" y="0">Ab</tspan></text></g></g><text id="_18px" data-name="18" font-family="Lato-Medium, Lato" font-size="1" font-weight="500" transform="translate(16.473 116.405)"><tspan x="0" y="0">18</tspan><tspan y="0" letter-spacing="-.019em">p</tspan><tspan y="0">x</tspan></text><path id="Path_86" d="M408.5,560.346l1.047.555v.223h-2.1V560.9Zm-1.053,2.323v-.332h2.1v.332Zm.223-1.328H408v.778h-.332Zm.664,0h.332v.778h-.332Zm.664,0h.332v.778H409Z" data-name="Path 86" transform="translate(-317.29 -436.358)"/><path id="Path_87" d="M445.547,27.551l-.685.415.182-.778-.6-.524.793-.067.311-.731.311.731.8.067-.607.524.182.778Z" data-name="Path 87" transform="translate(-346.1 -20.142)"/><path id="Path_88" d="M133.231,102.267a.461.461,0,0,1-.035.92H132a.553.553,0,0,1-.06-1.1.667.667,0,0,1,.251-.274.694.694,0,0,1,.672-.028.7.7,0,0,1,.242.2A.674.674,0,0,1,133.231,102.267Z" data-name="Path 88" transform="translate(-102.361 -79.205)"/><g id="Group_16" data-name="Group 16"><g id="Group_15" clip-path="url(#clip-path)" data-name="Group 15"><path id="Path_89" d="M696.462,1.476a.484.484,0,0,1-.151.356.494.494,0,0,1-.359.149.509.509,0,0,1-.506-.506Zm0,0a.494.494,0,0,1-.359-.149.483.483,0,0,1-.151-.357A.49.49,0,0,1,696.1.611a.491.491,0,0,1,.359-.151Zm0,0a.506.506,0,0,1,1.011,0Zm0,0a.508.508,0,0,1,.506.506.494.494,0,0,1-.149.359.484.484,0,0,1-.357.151Z" data-name="Path 89" transform="translate(-541.564 -0.358)"/></g></g></svg>